<?xml version="1.0" encoding="UTF-8" standalone="no"?>
<!DOCTYPE svg PUBLIC "-//W3C//DTD SVG 1.1//EN" "http://www.w3.org/Graphics/SVG/1.1/DTD/svg11.dtd">
<!-- Created with Vectornator (http://vectornator.io/) -->
<svg height="100%" stroke-miterlimit="10" style="fill-rule:nonzero;clip-rule:evenodd;stroke-linecap:round;stroke-linejoin:round;" version="1.1" viewBox="0 0 1024 1024" width="100%" xml:space="preserve" xmlns="http://www.w3.org/2000/svg" xmlns:vectornator="http://vectornator.io" xmlns:xlink="http://www.w3.org/1999/xlink">
<defs>
<linearGradient gradientTransform="matrix(1 0 0 1 0 0)" gradientUnits="userSpaceOnUse" id="LinearGradient" x1="596.103" x2="596.122" y1="901.893" y2="244.549">
<stop offset="0" stop-color="#f4da7f"/>
<stop offset="1" stop-color="#fdd95b"/>
</linearGradient>
<filter color-interpolation-filters="sRGB" filterUnits="userSpaceOnUse" height="854.673" id="Filter" width="854.513" x="84.7437" y="89.6637">
<feDropShadow dx="-1.8366e-05" dy="5" flood-color="#000000" flood-opacity="0.299348" in="SourceGraphic" result="Shadow" stdDeviation="7.5"/>
</filter>
<clipPath id="TextBounds">
<rect height="1443.32" width="1645.66" x="12.2479" y="-106.655"/>
</clipPath>
<linearGradient gradientTransform="matrix(1 0 0 1 -36.8603 73.0993)" gradientUnits="userSpaceOnUse" id="LinearGradient_2" x1="351.513" x2="820.888" y1="589.909" y2="805.179">
<stop offset="0" stop-color="#cccccc"/>
<stop offset="1" stop-color="#f7f7f7"/>
</linearGradient>
</defs>
<clipPath id="ArtboardFrame">
<rect height="1024" width="1024" x="0" y="0"/>
</clipPath>
<g clip-path="url(#ArtboardFrame)" id="图层-1" vectornator:layerName="图层 1">
<path d="M287.733 99.6637L736.267 99.6637C840.09 99.6637 924.256 181.757 924.256 283.024L924.256 740.976C924.256 842.243 840.09 924.336 736.267 924.336L287.733 924.336C183.91 924.336 99.7437 842.243 99.7437 740.976L99.7437 283.024C99.7437 181.757 183.91 99.6637 287.733 99.6637Z" fill="url(#LinearGradient)" fill-rule="nonzero" filter="url(#Filter)" stroke="none" vectornator:shadowAngle="1.5708" vectornator:shadowColor="#000000" vectornator:shadowOffset="5" vectornator:shadowOpacity="0.299348" vectornator:shadowRadius="15"/>
<clipPath id="ClipPath">
<path d="M287.733 99.6637L736.267 99.6637C840.09 99.6637 924.256 181.757 924.256 283.024L924.256 740.976C924.256 842.243 840.09 924.336 736.267 924.336L287.733 924.336C183.91 924.336 99.7437 842.243 99.7437 740.976L99.7437 283.024C99.7437 181.757 183.91 99.6637 287.733 99.6637Z"/>
</clipPath>
<g clip-path="url(#ClipPath)">
<g fill="url(#LinearGradient_2)" opacity="1" stroke="none">
<path clip-path="url(#TextBounds)" d="M368.719 62.4628L335.806 167.958L348.573 177.93L443.115 120.571L429.245 109.738L354.58 157.244L382.59 73.2966L368.719 62.4628Z"/>
<path clip-path="url(#TextBounds)" d="M491.809 155.052C479.515 145.449 466.699 142.038 452.801 144.886C439.587 147.507 428.24 154.887 418.637 167.181C409.158 179.317 404.746 192.113 405.526 205.411C406.128 219.586 412.419 231.351 424.713 240.954C436.85 250.434 449.946 253.811 464.002 251.086C476.935 248.499 488.282 241.119 497.762 228.983C507.364 216.689 511.776 203.893 511.119 190.437C510.517 176.263 503.946 164.532 491.809 155.052ZM483.56 165.612C492.072 172.26 496.264 180.864 496.137 191.424C495.715 200.737 492.135 209.869 484.995 219.011C478.1 227.837 469.984 233.68 461.05 236.345C450.836 239.025 441.473 237.042 432.962 230.394C424.293 223.622 420.1 215.019 420.542 204.705C420.807 195.269 424.545 186.26 431.562 177.276C438.702 168.134 446.538 162.327 455.629 159.784C465.528 156.858 474.891 158.841 483.56 165.612Z"/>
<path clip-path="url(#TextBounds)" d="M582.912 226.21C570.776 216.731 557.837 213.477 544.131 216.729C531.513 219.562 520.481 227.188 510.755 239.639C501.03 252.091 496.303 264.641 496.733 277.412C497.109 290.902 503.365 302.387 515.659 311.989C525.747 319.869 535.878 323.468 546.088 323.068C556.578 322.633 566.797 317.672 576.814 308.747L564.205 298.898C551.356 311.449 537.778 312.263 523.907 301.429C515.711 295.027 511.746 287.108 511.922 278.11C511.941 268.988 516.047 259.507 523.803 249.577C531.559 239.647 539.921 233.49 548.89 231.105C558.139 228.686 566.783 230.615 574.664 236.771C581.126 241.818 585.22 247.3 586.855 253.653C588.334 259.883 587.162 266.581 583.341 273.748L595.793 283.474C602.13 272.436 604.134 262.073 601.646 252.262C599.192 242.733 593 234.09 582.912 226.21Z"/>
<path clip-path="url(#TextBounds)" d="M669.445 293.799C659.673 286.166 650.472 282.025 641.528 281.129C631.707 280.057 622.404 283.195 614.022 290.352L625.735 301.024C631.059 296.807 636.816 294.96 643.041 295.762C648.794 296.195 654.542 298.908 660.531 303.586C674.717 314.666 676.516 326.984 665.805 340.696L662.481 344.952L642.69 330.001C630.273 320.556 618.969 315.534 608.902 314.777C597.643 313.596 588.601 317.699 581.338 326.999C576.167 333.619 574.38 341.105 576.1 349.301C577.785 357.215 582.647 364.312 590.843 370.714C598.409 376.623 606.54 380.183 615.115 381.551C622.375 382.654 629.462 382.352 636.062 380.401L625.351 394.114L637.173 403.347L678.046 351.018C685.432 341.561 688.697 332.183 688.154 323.131C687.281 312.552 681.109 302.909 669.445 293.799ZM655.095 354.409L649.678 361.344C644.753 367.649 637.327 370.984 627.678 371.315C617.749 371.681 609.002 368.909 601.278 362.876C596.235 358.937 593.121 354.475 591.816 349.649C590.633 344.664 591.554 340.562 594.508 336.779C603.742 324.957 617.562 326.108 636.092 340.074L655.095 354.409Z"/>
<path clip-path="url(#TextBounds)" d="M746.342 303.867L656.717 418.613L668.539 427.847L679.003 414.449C676.394 429.161 681.316 441.38 693.925 451.228C705.747 460.462 718.493 463.312 731.919 460.094C744.064 456.892 755.096 449.266 764.698 436.972C774.055 424.993 778.535 412.759 778.701 400.2C778.976 386.202 773.158 374.806 761.652 365.819C749.988 356.709 736.572 355.366 721.28 361.947L758.952 313.716L746.342 303.867ZM750.847 374.129C759.673 381.023 763.831 389.346 763.478 399.221C763.267 407.939 759.406 417.105 751.774 426.877C744.141 436.649 736.059 442.772 727.844 445.492C718.506 448.349 709.301 446.489 700.475 439.595C692.278 433.193 688.278 424.993 688.789 415.241C689.123 406.366 692.861 397.357 700.001 388.215L701.232 386.639C708.619 377.182 716.858 371.182 726.142 369.044C735.233 366.501 743.439 368.343 750.847 374.129Z"/>
<path clip-path="url(#TextBounds)" d="M812.73 409.268L773.335 459.706C756.099 481.772 757.13 500.596 776.99 516.108C788.024 524.726 800.79 526.576 815.043 521.975L805.194 534.584L817.803 544.433L881.452 462.945L868.842 453.096L830.062 502.745C823.7 508.942 816.588 512.523 808.728 513.489C801.271 514.264 794.661 512.654 789.302 508.468C781.894 502.682 778.136 496.447 777.78 490.079C777.425 483.711 780.404 476.648 786.436 468.924L825.34 419.117L812.73 409.268Z"/>
<path clip-path="url(#TextBounds)" d="M929.495 446.923L839.87 561.669L852.322 571.395L941.947 456.648L929.495 446.923Z"/>
<path clip-path="url(#TextBounds)" d="M975.225 532.635C965.452 525.002 956.252 520.861 947.307 519.966C937.487 518.893 928.183 522.031 919.801 529.189L931.515 539.86C936.838 535.644 942.596 533.796 948.821 534.598C954.574 535.031 960.322 537.744 966.311 542.422C980.497 553.502 982.296 565.82 971.585 579.533L968.261 583.788L948.47 568.838C936.053 559.393 924.749 554.37 914.682 553.613C903.423 552.432 894.381 556.536 887.117 565.835C881.947 572.455 880.16 579.942 881.879 588.137C883.565 596.051 888.426 603.148 896.623 609.55C904.188 615.459 912.32 619.019 920.895 620.387C928.155 621.49 935.242 621.189 941.842 619.238L931.131 632.95L942.952 642.184L983.825 589.854C991.212 580.397 994.476 571.019 993.933 561.967C993.061 551.388 986.888 541.745 975.225 532.635ZM960.874 593.245L955.457 600.181C950.533 606.485 943.106 609.821 933.458 610.152C923.529 610.517 914.781 607.745 907.058 601.713C902.014 597.773 898.901 593.311 897.595 588.485C896.413 583.501 897.333 579.398 900.288 575.615C909.521 563.794 923.342 564.945 941.872 578.91L960.874 593.245Z"/>
<path clip-path="url(#TextBounds)" d="M1063.65 601.701C1057.97 597.269 1051.73 595.186 1044.77 595.329C1039.21 595.301 1033.42 596.867 1027.52 599.872L1038.6 585.687L1026.15 575.961L962.497 657.45L974.949 667.175L1008.68 623.988C1014.59 616.422 1021.69 611.56 1030.29 609.648C1038.97 607.298 1046.43 608.804 1052.73 613.729C1056.67 616.807 1060.4 620.48 1063.51 624.942L1073.36 612.333C1071.35 608.733 1068.06 605.148 1063.65 601.701Z"/>
<path clip-path="url(#TextBounds)" d="M1074.69 613.879L1044.83 718.714L1004.95 740.857L1018.66 751.568L1151.29 673.711L1137.42 662.878L1063.08 708.35L1088.4 624.59L1074.69 613.879Z"/>
<path clip-path="url(#TextBounds)" d="M135.67 232.17C123.848 222.936 111.225 219.929 97.6417 223.023C84.4278 225.645 73.2386 233.147 63.8822 245.126C53.5408 258.366 48.883 271.477 49.9779 285.021C51.0038 298.004 57.3831 309.331 69.0468 318.441C79.6073 326.69 90.7385 330.308 102.194 329.613C111.651 328.878 120.2 325.405 128.247 319.001L115.638 309.152C109.157 313.226 103.153 315.389 97.4696 315.517C90.7862 315.626 83.9153 313.051 77.2953 307.881C69.572 301.848 65.3947 294.525 64.9209 286.034C64.4472 277.543 67.6229 268.604 74.1329 258.969L138.441 309.199C149.206 294.767 154.795 281.114 154.961 268.555C155.235 254.557 148.752 242.388 135.67 232.17ZM127.737 242.976C143.183 255.041 145.081 270.481 132.992 289.208L82.0811 249.443C89.1479 242.02 96.5942 237.685 104.701 236.404C112.808 235.122 120.486 237.313 127.737 242.976Z"/>
<path clip-path="url(#TextBounds)" d="M182.335 272.172L181.263 333.002L115.219 350.952L130.193 362.647L181.092 347.842L178.897 400.689L193.87 412.385L195.291 343.959L254.051 328.187L239.235 316.615L195.62 329.243L197.151 283.744L182.335 272.172Z"/>
<path clip-path="url(#TextBounds)" d="M310.39 329.811L293.876 325.287L277.379 346.408L260.987 333.604L252.738 344.165L269.13 356.968L228.627 408.825C223.825 414.972 221.516 420.528 221.733 425.773C221.862 431.457 225.394 437.007 232.014 442.178L244.308 451.78L252.557 441.22L242.154 433.094C239.317 430.878 237.883 428.49 237.765 426.367C237.489 424.121 238.74 421.545 241.079 418.551L281.582 366.694L301.757 382.452L310.006 371.892L289.831 356.134L310.39 329.811Z"/>
<path clip-path="url(#TextBounds)" d="M359.33 406.865C347.509 397.632 334.885 394.624 321.302 397.718C308.088 400.34 296.899 407.842 287.543 419.821C277.201 433.061 272.544 446.172 273.638 459.716C274.664 472.699 281.044 484.026 292.707 493.136C303.268 501.385 314.399 505.004 325.855 504.308C335.311 503.573 343.861 500.1 351.908 493.696L339.298 483.847C332.817 487.921 326.814 490.084 321.13 490.213C314.447 490.322 307.576 487.747 300.956 482.576C293.233 476.543 289.055 469.22 288.581 460.729C288.108 452.238 291.283 443.299 297.793 433.665L362.102 483.894C372.867 469.462 378.455 455.809 378.621 443.25C378.895 429.253 372.413 417.083 359.33 406.865ZM351.397 417.672C366.844 429.737 368.742 445.177 356.652 463.903L305.742 424.138C312.808 416.715 320.255 412.381 328.361 411.099C336.468 409.818 344.147 412.009 351.397 417.672Z"/>
<path clip-path="url(#TextBounds)" d="M451.379 478.762C446.02 474.576 440.149 472.021 433.766 471.096C427.506 470.013 421.173 470.649 414.765 473.004L424.122 461.025L411.512 451.176L347.864 532.664L360.473 542.513L398.884 493.336C405.143 486.298 412.062 482.313 419.923 481.346C427.222 480.449 433.708 482.217 439.383 486.649C453.568 497.729 454.663 511.273 442.229 527.192L403.818 576.369L416.428 586.218L455.577 536.095C473.059 513.714 471.555 494.52 451.379 478.762Z"/>
<path clip-path="url(#TextBounds)" d="M585.808 533.766L548.136 581.997C550.818 565.567 546.266 552.875 534.602 543.765C522.938 534.655 510.63 531.893 497.116 535.549C484.813 538.629 474.185 546.062 464.829 558.041C455.226 570.335 450.342 582.762 450.333 595.444C450.305 609.126 456.158 620.803 468.137 630.159C480.431 639.762 493.635 641.701 507.435 635.73L496.971 649.128L508.792 658.361L598.417 543.615L585.808 533.766ZM529.156 556.261C536.407 561.924 540.18 569.439 540.073 578.999C539.931 588.278 536.263 597.848 528.876 607.305L527.645 608.881C520.504 618.023 512.669 623.831 504.297 626.427C494.801 629.162 486.034 627.39 477.838 620.988C469.012 614.093 464.977 605.613 465.488 595.861C465.98 587.109 470.121 577.908 477.754 568.136C485.386 558.364 493.187 552.275 501.594 549.96C510.932 547.102 520.172 549.243 529.156 556.261Z"/>
<path clip-path="url(#TextBounds)" d="M787.579 741.359C775.285 731.756 762.47 728.344 748.571 731.193C735.357 733.814 724.01 741.194 714.408 753.488C704.928 765.624 700.517 778.42 701.296 791.718C701.899 805.893 708.189 817.658 720.484 827.261C732.62 836.741 745.717 840.118 759.773 837.393C772.706 834.805 784.053 827.426 793.532 815.29C803.135 802.995 807.546 790.199 806.89 776.744C806.288 762.569 799.716 750.838 787.579 741.359ZM779.331 751.919C787.842 758.567 792.035 767.171 791.908 777.731C791.485 787.044 787.906 796.176 780.765 805.318C773.871 814.144 765.755 819.986 756.821 822.652C746.606 825.332 737.244 823.349 728.732 816.701C720.063 809.929 715.871 801.326 716.313 791.012C716.578 781.576 720.315 772.567 727.333 763.583C734.473 754.441 742.308 748.633 751.4 746.091C761.299 743.164 770.662 745.148 779.331 751.919Z"/>
<path clip-path="url(#TextBounds)" d="M882.466 815.472C870.171 805.869 857.125 804.053 843.167 809.901L853.632 796.504L841.81 787.27L753.786 899.967L766.395 909.816L802.344 863.792C799.784 880.065 804.337 892.756 816 901.867C827.664 910.977 840.096 913.581 853.364 910.24C865.509 907.037 876.417 899.57 885.774 887.591C895.376 875.296 899.98 862.904 899.988 850.222C900.105 836.102 894.129 824.582 882.466 815.472ZM872.764 824.644C881.433 831.415 885.591 839.738 884.991 849.928C884.342 858.557 880.359 867.881 872.849 877.496C865.216 887.268 857.134 893.391 848.604 895.864C839.355 898.283 830.273 896.265 821.446 889.371C813.881 883.461 810.388 875.912 810.407 866.79C810.233 857.265 813.936 847.976 821.322 838.519L822.554 836.942C829.694 827.801 837.652 821.835 846.183 819.362C855.643 816.347 864.568 818.242 872.764 824.644Z"/>
<path clip-path="url(#TextBounds)" d="M976.486 850.081L959.971 845.556L943.474 866.677L927.082 853.873L918.834 864.434L935.226 877.237L894.722 929.094C889.921 935.241 887.612 940.797 887.829 946.042C887.957 951.726 891.489 957.276 898.109 962.447L910.404 972.049L918.652 961.489L908.249 953.364C905.412 951.148 903.979 948.759 903.86 946.636C903.584 944.391 904.835 941.815 907.174 938.82L947.678 886.963L967.853 902.722L976.101 892.161L955.926 876.403L976.486 850.081Z"/>
<path clip-path="url(#TextBounds)" d="M1024.54 880.508C1021.86 878.415 1019.04 877.479 1015.67 877.894C1012.55 877.992 1010.03 879.584 1007.82 882.421C1005.73 885.1 1004.79 887.922 1005.2 891.291C1005.74 894.502 1007.21 897.172 1009.89 899.264C1012.57 901.357 1015.51 902.135 1018.76 901.879C1022.13 901.465 1024.8 899.997 1026.89 897.317C1029.11 894.48 1029.88 891.535 1029.22 888.481C1028.81 885.112 1027.22 882.601 1024.54 880.508ZM994.227 906.319L930.579 987.808L943.188 997.657L1006.84 916.168L994.227 906.319Z"/>
<path clip-path="url(#TextBounds)" d="M1067.82 960.251C1058.68 953.111 1047.64 951.334 1034.59 955.359L1043.09 944.484L1030.48 934.635L966.831 1016.12L979.44 1025.97L1018.22 976.322C1023.27 969.86 1029.47 965.821 1036.7 964.362C1044.17 962.588 1050.63 964.075 1056.46 968.63C1068.91 978.356 1069.68 990.373 1058.35 1004.87L1018.21 1056.26L1030.82 1066.11L1070.71 1015.04C1075.88 1008.42 1081.68 1004.57 1088.66 1003.43C1095.33 1002.04 1101.38 1003.72 1106.74 1007.9C1113.67 1013.32 1117.36 1018.99 1117.56 1025.24C1117.85 1031.04 1115.24 1037.63 1109.57 1044.89L1069.44 1096.27L1082.05 1106.12L1123.78 1052.69C1131.05 1043.39 1134.16 1033.88 1133.42 1024.43C1132.25 1014.88 1127.56 1006.91 1119.05 1000.26C1113.38 995.83 1107.66 993.398 1101.75 992.842C1095.49 991.759 1088.63 992.745 1081.29 995.642C1084.85 981.669 1080.28 969.977 1067.82 960.251Z"/>
<path clip-path="url(#TextBounds)" d="M1199.65 1017.28C1196.97 1015.19 1194.15 1014.26 1190.78 1014.67C1187.66 1014.77 1185.15 1016.36 1182.93 1019.2C1180.84 1021.88 1179.9 1024.7 1180.32 1028.07C1180.86 1031.28 1182.32 1033.95 1185 1036.04C1187.68 1038.13 1190.63 1038.91 1193.87 1038.66C1197.24 1038.24 1199.91 1036.77 1202 1034.09C1204.22 1031.26 1205 1028.31 1204.34 1025.26C1203.92 1021.89 1202.33 1019.38 1199.65 1017.28ZM1169.34 1043.1L1105.69 1124.58L1118.3 1134.43L1181.95 1052.94L1169.34 1043.1Z"/>
<path clip-path="url(#TextBounds)" d="M1236.16 1091.73C1227.02 1084.59 1217.85 1080.73 1208.98 1080.4C1199.63 1079.7 1192.45 1082.72 1187.03 1089.65C1181.62 1096.59 1180.55 1104.13 1183.9 1112.83C1185.71 1118.31 1190.64 1125.97 1198.41 1135.84C1205.51 1144.94 1209.99 1151.23 1211.69 1154.59C1214.76 1161.05 1214.73 1166.61 1211.16 1171.18C1204.02 1180.32 1192.92 1179.26 1178.42 1167.94C1171.48 1162.52 1167.27 1157.2 1165.77 1151.97C1164.52 1146.42 1165.72 1140 1169.82 1132.8L1157.53 1123.2C1144.77 1143.43 1149.05 1162 1170.48 1178.74C1193.5 1196.72 1211.65 1197.19 1224.7 1180.49C1230.24 1173.39 1231.24 1165.29 1227.98 1156.15C1225.82 1150.14 1220.85 1142.2 1212.92 1132.21C1206.45 1123.6 1202.13 1117.43 1200.24 1113.67C1197.36 1107.62 1197.5 1102.9 1200.2 1099.43C1203.04 1095.81 1206.99 1094.32 1212.05 1094.98C1216.93 1095.24 1222.08 1097.74 1227.76 1102.17C1234.22 1107.22 1238.28 1112.42 1239.77 1117.65C1241.2 1122.32 1240.3 1127.7 1237.46 1133.61L1249.76 1143.21C1260.84 1124.46 1256.34 1107.49 1236.16 1091.73Z"/>
<path clip-path="url(#TextBounds)" d="M1322.54 1159.2C1313.39 1152.06 1302.35 1150.28 1289.31 1154.31L1297.8 1143.43L1285.19 1133.58L1221.54 1215.07L1234.15 1224.92L1272.93 1175.27C1277.98 1168.81 1284.18 1164.77 1291.41 1163.31C1298.89 1161.54 1305.34 1163.02 1311.17 1167.58C1323.62 1177.3 1324.39 1189.32 1313.06 1203.82L1272.93 1255.21L1285.54 1265.05L1325.42 1213.99C1330.59 1207.37 1336.39 1203.52 1343.37 1202.38C1350.04 1200.99 1356.09 1202.67 1361.45 1206.85C1368.39 1212.27 1372.08 1217.94 1372.27 1224.19C1372.56 1229.99 1369.95 1236.58 1364.29 1243.83L1324.15 1295.22L1336.76 1305.07L1378.5 1251.63C1385.76 1242.33 1388.87 1232.83 1388.13 1223.38C1386.96 1213.83 1382.27 1205.86 1373.76 1199.21C1368.09 1194.78 1362.37 1192.35 1356.46 1191.79C1350.2 1190.71 1343.34 1191.69 1336.01 1194.59C1339.56 1180.62 1334.99 1168.93 1322.54 1159.2Z"/>
<path clip-path="url(#TextBounds)" d="M31.5624 506.143C22.4206 499.002 11.3733 497.226-1.66811 501.251L6.82658 490.375L-5.78289 480.526L-69.4315 562.015L-56.8221 571.864L-18.0419 522.214C-12.9944 515.752-6.79404 511.712 0.43592 510.254C7.91211 508.48 14.3642 509.967 20.1961 514.522C32.648 524.248 33.4127 536.265 22.0864 550.766L-18.0479 602.149L-5.43846 611.998L34.4497 560.93C39.6203 554.31 45.4168 550.463 52.4006 549.319C59.0691 547.93 65.1173 549.609 70.4764 553.794C77.4116 559.211 81.1011 564.885 81.2988 571.13C81.5851 576.936 78.9755 583.527 73.3124 590.777L33.178 642.161L45.7875 652.009L87.5223 598.577C94.7859 589.277 97.8926 579.776 97.1577 570.32C95.9845 560.775 91.2998 552.802 82.7884 546.154C77.1141 541.722 71.4007 539.29 65.4905 538.734C59.2305 537.651 52.3698 538.637 45.0317 541.533C48.5861 527.56 44.0143 515.869 31.5624 506.143Z"/>
<path clip-path="url(#TextBounds)" d="M166.169 611.28C156.396 603.647 147.196 599.506 138.251 598.611C128.431 597.538 119.127 600.676 110.745 607.834L122.459 618.505C127.782 614.289 133.54 612.441 139.765 613.243C145.518 613.676 151.266 616.389 157.255 621.067C171.441 632.147 173.24 644.465 162.529 658.178L159.205 662.433L139.414 647.483C126.997 638.038 115.693 633.015 105.626 632.258C94.3669 631.077 85.3248 635.181 78.0612 644.48C72.8905 651.1 71.1035 658.587 72.8233 666.782C74.5086 674.696 79.3705 681.793 87.5666 688.195C95.1323 694.104 103.264 697.664 111.839 699.032C119.099 700.135 126.186 699.834 132.786 697.883L122.075 711.595L133.896 720.829L174.769 668.499C182.156 659.042 185.42 649.665 184.877 640.612C184.005 630.033 177.832 620.39 166.169 611.28ZM151.818 671.891L146.401 678.826C141.477 685.13 134.05 688.466 124.402 688.797C114.473 689.162 105.725 686.39 98.0022 680.358C92.9584 676.418 89.8452 671.956 88.5395 667.13C87.3569 662.146 88.2775 658.043 91.2321 654.26C100.466 642.439 114.286 643.59 132.816 657.555L151.818 671.891Z"/>
<path clip-path="url(#TextBounds)" d="M247.657 674.929C238.515 667.788 229.349 663.928 220.474 663.594C211.126 662.891 203.946 665.911 198.529 672.846C193.112 679.781 192.044 687.322 195.394 696.029C197.207 701.505 202.138 709.163 209.906 719.038C217.009 728.138 221.487 734.427 223.181 737.781C226.255 744.243 226.226 749.803 222.656 754.374C215.516 763.516 204.414 762.458 189.913 751.132C182.978 745.715 178.762 740.392 177.264 735.161C176.012 729.616 177.218 723.198 181.32 715.997L169.026 706.394C156.267 726.628 160.544 745.196 181.98 761.939C204.992 779.913 223.147 780.389 236.196 763.681C241.736 756.588 242.735 748.486 239.474 739.341C237.311 733.337 232.346 725.398 224.42 715.401C217.947 706.793 213.627 700.627 211.741 696.869C208.859 690.812 208.991 686.093 211.7 682.626C214.531 679 218.481 677.518 223.549 678.177C228.425 678.433 233.577 680.934 239.251 685.366C245.714 690.414 249.772 695.614 251.27 700.844C252.699 705.513 251.793 710.897 248.957 716.802L261.251 726.405C272.341 707.659 267.832 690.687 247.657 674.929Z"/>
<path clip-path="url(#TextBounds)" d="M338.998 707.444L322.483 702.92L305.986 724.041L289.594 711.237L281.346 721.798L297.738 734.601L257.234 786.458C252.433 792.605 250.124 798.161 250.341 803.406C250.469 809.089 254.001 814.64 260.621 819.81L272.916 829.413L281.164 818.853L270.761 810.727C267.924 808.511 266.491 806.123 266.372 804C266.096 801.754 267.347 799.178 269.686 796.183L310.19 744.327L330.365 760.085L338.613 749.525L318.438 733.767L338.998 707.444Z"/>
<path clip-path="url(#TextBounds)" d="M387.938 784.498C376.116 775.265 363.493 772.257 349.91 775.351C336.696 777.973 325.507 785.475 316.15 797.454C305.809 810.694 301.151 823.805 302.246 837.349C303.272 850.332 309.651 861.659 321.315 870.769C331.875 879.018 343.006 882.636 354.462 881.941C363.918 881.206 372.468 877.733 380.515 871.329L367.906 861.48C361.425 865.554 355.421 867.717 349.737 867.846C343.054 867.955 336.183 865.38 329.563 860.209C321.84 854.176 317.663 846.853 317.189 838.362C316.715 829.871 319.891 820.932 326.401 811.297L390.709 861.527C401.474 847.095 407.062 833.442 407.229 820.883C407.503 806.885 401.02 794.716 387.938 784.498ZM380.004 795.305C395.451 807.369 397.349 822.81 385.26 841.536L334.349 801.771C341.416 794.348 348.862 790.013 356.969 788.732C365.075 787.451 372.754 789.641 380.004 795.305Z"/>
<path clip-path="url(#TextBounds)" d="M477.622 854.548C471.948 850.116 465.708 848.034 458.744 848.177C453.183 848.148 447.391 849.715 441.491 852.72L452.571 838.534L440.12 828.809L376.471 910.297L388.923 920.023L422.655 876.836C428.565 869.27 435.661 864.408 444.26 862.496C452.948 860.146 460.4 861.652 466.705 866.577C470.645 869.655 474.374 873.328 477.487 877.79L487.336 865.181C485.326 861.581 482.036 857.995 477.622 854.548Z"/>
</g>
</g>
</g>
<g id="图层-2" vectornator:layerName="图层 2">
<path d="M640.772 773.949L734.518 872.344L890.05 666.85L943.184 596.649" fill="none" opacity="1" stroke="#5ccb58" stroke-linecap="round" stroke-linejoin="round" stroke-width="42.0037"/>
</g>
</svg>
